<svg width="150" height="129" viewBox="0 0 150 129" fill="none" xmlns="http://www.w3.org/2000/svg">
<path d="M14.566 110.22C13.7153 110.22 12.938 110.037 12.234 109.67C11.5447 109.303 10.9947 108.768 10.584 108.064C10.188 107.345 9.99 106.473 9.99 105.446C9.99 104.434 10.2027 103.561 10.628 102.828C11.0533 102.08 11.618 101.508 12.322 101.112C13.0407 100.716 13.8253 100.518 14.676 100.518C15.5267 100.518 16.2453 100.716 16.832 101.112C17.4187 101.493 17.866 101.948 18.174 102.476L18.042 102.828L18.24 100.892H20.132V110H18.086V107.624L18.306 108.152C18.2473 108.299 18.1153 108.489 17.91 108.724C17.7193 108.944 17.4553 109.171 17.118 109.406C16.7953 109.641 16.4213 109.839 15.996 110C15.5707 110.147 15.094 110.22 14.566 110.22ZM15.116 108.526C15.6293 108.526 16.0913 108.431 16.502 108.24C16.9127 108.049 17.25 107.785 17.514 107.448C17.7927 107.096 17.9833 106.678 18.086 106.194V104.412C17.9687 103.972 17.7633 103.591 17.47 103.268C17.1767 102.931 16.8247 102.674 16.414 102.498C16.0033 102.307 15.5487 102.212 15.05 102.212C14.5073 102.212 14.0087 102.344 13.554 102.608C13.0993 102.872 12.7327 103.239 12.454 103.708C12.19 104.177 12.058 104.727 12.058 105.358C12.058 105.945 12.1973 106.48 12.476 106.964C12.7547 107.448 13.1287 107.829 13.598 108.108C14.0673 108.387 14.5733 108.526 15.116 108.526ZM25.4986 100.892L25.6746 103.114L25.5866 102.762C25.88 102.087 26.3566 101.552 27.0166 101.156C27.6766 100.745 28.4393 100.54 29.3046 100.54C30.17 100.54 30.874 100.797 31.4166 101.31C31.974 101.809 32.26 102.461 32.2746 103.268V110H30.2066V103.994C30.192 103.495 30.0453 103.092 29.7666 102.784C29.5026 102.461 29.0846 102.3 28.5126 102.3C27.9846 102.3 27.508 102.447 27.0826 102.74C26.6573 103.033 26.32 103.437 26.0706 103.95C25.836 104.463 25.7186 105.057 25.7186 105.732V110H23.6726V100.892H25.4986ZM35.8328 110V92.972H37.8788V110H35.8328ZM40.0788 103.95L44.2588 110H41.8608L38.7148 105.094L40.0788 103.95ZM37.2408 107.096L37.0428 105.138L42.5648 100.694L43.8188 101.772L37.2408 107.096ZM49.6718 110.352C48.8505 110.352 48.1685 110.103 47.6258 109.604C47.0978 109.091 46.8191 108.431 46.7898 107.624V100.892H48.8358V106.898C48.8651 107.397 49.0045 107.8 49.2538 108.108C49.5178 108.416 49.9285 108.577 50.4858 108.592C50.9991 108.592 51.4538 108.445 51.8498 108.152C52.2605 107.844 52.5905 107.433 52.8398 106.92C53.0891 106.392 53.2138 105.798 53.2138 105.138V100.892H55.2598V110H53.3898L53.2138 107.756L53.3238 108.152C53.1478 108.577 52.8765 108.959 52.5098 109.296C52.1578 109.619 51.7398 109.875 51.2558 110.066C50.7718 110.257 50.2438 110.352 49.6718 110.352ZM60.6256 100.892L60.8236 103.532L60.7136 103.18C60.9482 102.623 61.2856 102.153 61.7256 101.772C62.1802 101.376 62.6496 101.075 63.1336 100.87C63.6322 100.65 64.0649 100.54 64.4316 100.54L64.3216 102.564C63.6322 102.52 63.0236 102.652 62.4956 102.96C61.9822 103.268 61.5716 103.679 61.2636 104.192C60.9702 104.705 60.8236 105.255 60.8236 105.842V110H58.7996V100.892H60.6256ZM66.4551 95.524H70.2391V110H68.1051V97.57H66.4551V95.524ZM73.6953 110C74.634 109.091 75.5286 108.196 76.3793 107.316C77.23 106.436 77.9926 105.585 78.6673 104.764C79.3566 103.943 79.8993 103.151 80.2953 102.388C80.6913 101.611 80.8893 100.863 80.8893 100.144C80.8893 99.66 80.8086 99.2493 80.6473 98.912C80.486 98.56 80.2733 98.274 80.0093 98.054C79.76 97.834 79.474 97.6727 79.1513 97.57C78.8286 97.4527 78.4986 97.394 78.1613 97.394C77.6773 97.394 77.2666 97.4747 76.9293 97.636C76.592 97.7827 76.3133 97.9807 76.0933 98.23C75.888 98.4793 75.734 98.7433 75.6313 99.022C75.5433 99.3007 75.4993 99.5793 75.4993 99.858C75.4993 100.342 75.5726 100.782 75.7193 101.178C75.866 101.559 76.0786 101.897 76.3573 102.19L75.0373 103.356C74.7 103.136 74.4066 102.828 74.1573 102.432C73.9226 102.036 73.7393 101.611 73.6073 101.156C73.49 100.687 73.4313 100.269 73.4313 99.902C73.4313 99.11 73.622 98.3693 74.0033 97.68C74.3993 96.976 74.9713 96.4113 75.7193 95.986C76.482 95.5607 77.406 95.348 78.4913 95.348C79.4153 95.348 80.222 95.5607 80.9113 95.986C81.6006 96.4113 82.136 96.976 82.5173 97.68C82.8986 98.3693 83.0893 99.132 83.0893 99.968C83.0893 100.701 82.9426 101.42 82.6493 102.124C82.356 102.828 81.96 103.525 81.4613 104.214C80.9773 104.903 80.4346 105.585 79.8333 106.26C79.2466 106.92 78.66 107.587 78.0733 108.262L77.1493 107.954H83.5733V110H73.6953ZM85.6836 104.368H89.7976V106.172H85.6836V104.368ZM92.3652 95.524H96.1492V110H94.0152V97.57H92.3652V95.524ZM104.467 110.176C103.499 110.176 102.619 109.949 101.827 109.494C101.05 109.025 100.427 108.365 99.9575 107.514C99.5028 106.649 99.2755 105.629 99.2755 104.456C99.2755 103.503 99.4588 102.601 99.8255 101.75C100.207 100.885 100.713 100.078 101.343 99.33C101.974 98.5673 102.685 97.8633 103.477 97.218C104.284 96.558 105.105 95.9567 105.941 95.414L107.349 96.954C106.161 97.5407 105.164 98.208 104.357 98.956C103.551 99.6893 102.927 100.437 102.487 101.2C102.047 101.963 101.783 102.681 101.695 103.356L101.167 103.29C101.563 102.469 102.084 101.838 102.729 101.398C103.375 100.958 104.189 100.738 105.171 100.738C105.919 100.738 106.623 100.936 107.283 101.332C107.943 101.728 108.479 102.271 108.889 102.96C109.315 103.649 109.527 104.441 109.527 105.336C109.527 106.319 109.285 107.177 108.801 107.91C108.332 108.629 107.709 109.186 106.931 109.582C106.169 109.978 105.347 110.176 104.467 110.176ZM104.379 108.262C104.922 108.262 105.413 108.145 105.853 107.91C106.308 107.661 106.667 107.316 106.931 106.876C107.195 106.436 107.327 105.93 107.327 105.358C107.327 104.786 107.195 104.287 106.931 103.862C106.667 103.437 106.308 103.107 105.853 102.872C105.413 102.637 104.922 102.52 104.379 102.52C103.837 102.52 103.345 102.637 102.905 102.872C102.465 103.092 102.113 103.4 101.849 103.796C101.585 104.177 101.453 104.603 101.453 105.072V105.446C101.453 105.945 101.578 106.414 101.827 106.854C102.091 107.279 102.443 107.624 102.883 107.888C103.338 108.137 103.837 108.262 104.379 108.262ZM111.594 95.524H115.378V110H113.244V97.57H111.594V95.524ZM124.532 110.066C123.637 110.066 122.816 109.897 122.068 109.56C121.32 109.223 120.675 108.739 120.132 108.108C119.604 107.463 119.193 106.685 118.9 105.776C118.607 104.867 118.46 103.847 118.46 102.718C118.46 101.486 118.599 100.415 118.878 99.506C119.157 98.582 119.56 97.812 120.088 97.196C120.631 96.58 121.276 96.1253 122.024 95.832C122.772 95.524 123.608 95.37 124.532 95.37C125.427 95.37 126.241 95.5387 126.974 95.876C127.722 96.2133 128.36 96.7047 128.888 97.35C129.431 97.9807 129.849 98.7507 130.142 99.66C130.45 100.555 130.604 101.574 130.604 102.718C130.604 103.877 130.45 104.911 130.142 105.82C129.849 106.729 129.431 107.499 128.888 108.13C128.36 108.761 127.722 109.245 126.974 109.582C126.241 109.905 125.427 110.066 124.532 110.066ZM124.51 108.02C125.361 108.02 126.072 107.8 126.644 107.36C127.231 106.905 127.671 106.275 127.964 105.468C128.257 104.661 128.404 103.73 128.404 102.674C128.404 101.618 128.257 100.701 127.964 99.924C127.671 99.132 127.231 98.516 126.644 98.076C126.072 97.636 125.361 97.416 124.51 97.416C123.659 97.416 122.948 97.6433 122.376 98.098C121.804 98.538 121.371 99.154 121.078 99.946C120.799 100.738 120.66 101.662 120.66 102.718C120.66 103.759 120.799 104.683 121.078 105.49C121.371 106.282 121.804 106.905 122.376 107.36C122.948 107.8 123.659 108.02 124.51 108.02Z" fill="#D44375"/>
<rect x="1" y="83" width="142" height="41" stroke="#D44375" stroke-width="2"/>
<path fill-rule="evenodd" clip-rule="evenodd" d="M149.222 89.3889H142.833V123.889H7.38892V129H149.222V89.3889Z" fill="#D44375"/>
<g clip-path="url(#clip0_433_27)">
<path d="M68.6425 77.5933C67.6492 77.5924 66.672 77.8442 65.8034 78.3249H71.4743C70.6083 77.8444 69.6335 77.5925 68.6425 77.5933Z" fill="#E6E6E6"/>
<path d="M79.6468 76.8617C77.9875 76.8598 76.3684 77.371 75.0125 78.3249H84.2748C82.9207 77.3721 81.304 76.861 79.6468 76.8617Z" fill="#E6E6E6"/>
<path d="M141.981 67.6002C141.566 60.1075 135.53 53.9984 128.023 53.4863C124.562 53.2438 121.124 54.2016 118.29 56.1975C115.457 58.1934 113.402 61.1046 112.474 64.4382C112.292 64.4316 112.11 64.4243 111.926 64.4243C108.677 64.4249 105.515 65.4747 102.914 67.4164C100.313 69.3582 98.4123 72.0877 97.4963 75.1965C95.3433 74.2531 92.9373 74.0484 90.6552 74.6145C88.373 75.1806 86.3436 76.4855 84.8847 78.3249H131.797C137.56 78.3249 142.227 73.5643 141.991 67.8214C141.988 67.7478 141.985 67.6741 141.981 67.6002Z" fill="#E6E6E6"/>
<path d="M140.762 78.1702H9V78.4797H140.762V78.1702Z" fill="#3F3D56"/>
<path d="M52.9742 27.896C52.9742 27.896 46.9937 26.0382 47.9118 29.0947C48.8299 32.1513 53.8672 30.6074 53.8672 30.6074L52.9742 27.896Z" fill="#FFB8B8"/>
<path d="M75.8351 16.4235C75.8351 16.4235 72.7702 12.2467 69.7925 16.5827C66.809 20.9273 64.035 24.494 64.035 24.494L56.625 26.9034L52.3381 27.2827L53.5191 31.0836L65.9835 29.2803C65.9835 29.2803 79.8603 21.0598 75.8351 16.4235Z" fill="#2F2E41"/>
<path d="M62.1551 39.5545C62.1551 39.5545 57.4991 42.8047 57.8095 45.7453C58.1199 48.686 60.1375 56.7342 60.1375 56.7342L64.3278 56.1151C64.3278 56.1151 64.7934 49.9242 63.2414 47.6026L70.6909 43.4238L62.1551 39.5545Z" fill="#FFB8B8"/>
<path d="M72.4757 47.2157C72.4757 47.2157 72.1653 52.9423 72.9413 55.2638C73.7173 57.5854 74.4932 66.2527 74.4932 66.2527H78.8388C78.8388 66.2527 80.8563 58.6688 78.3732 55.2638C78.3732 55.2638 77.5972 50.7754 79.77 48.6086L72.4757 47.2157Z" fill="#FFB8B8"/>
<path d="M71.4669 31.3515C71.4669 31.3515 61.3791 37.6972 61.3791 39.7092L69.4493 46.3644L72.2429 43.269L71.9325 47.9122L80.6236 49.6147C80.6236 49.6147 83.7275 37.852 83.5723 37.3876C83.4171 36.9233 82.9515 30.1133 82.9515 30.1133L71.4669 31.3515Z" fill="#2F2E41"/>
<path d="M64.3278 55.3412L59.8271 56.2699L60.6268 59.5483C61.0203 61.1619 61.0652 62.8406 60.7583 64.4728C60.7583 64.4728 65.4142 65.711 65.4142 65.0919C65.4142 64.4728 64.3278 61.9964 64.6382 60.2939C64.9486 58.5915 64.3278 55.3412 64.3278 55.3412Z" fill="#D44375"/>
<path d="M66.6558 66.9492C66.5006 66.3301 65.2111 63.5232 65.1575 63.998C65.1038 64.4728 62.6207 65.2467 61.6895 64.318C61.6895 64.318 60.4479 63.2346 59.9823 64.318C59.5167 65.4014 58.5855 67.2587 58.5855 67.2587C58.5855 67.2587 54.3952 69.2708 55.016 70.3542C55.1415 70.5733 55.4894 70.6657 55.9643 70.6738C55.9532 70.7025 55.9474 70.7329 55.9472 70.7636V70.8733C55.9472 70.9409 55.9741 71.0057 56.022 71.0534C56.0699 71.1012 56.1348 71.128 56.2026 71.128H56.3126C56.3803 71.128 56.4453 71.1012 56.4932 71.0534C56.5411 71.0057 56.568 70.9409 56.568 70.8733V70.7636C56.5677 70.7241 56.5582 70.6853 56.5401 70.6501C56.667 70.639 56.7987 70.6244 56.9341 70.6066C56.8982 70.6512 56.8786 70.7065 56.8784 70.7636V70.8733C56.8784 70.9409 56.9053 71.0057 56.9532 71.0534C57.0011 71.1012 57.066 71.128 57.1338 71.128H57.2437C57.3115 71.128 57.3764 71.1012 57.4243 71.0534C57.4722 71.0057 57.4991 70.9409 57.4991 70.8733V70.7636C57.499 70.7183 57.4867 70.6738 57.4635 70.6348C57.4402 70.5958 57.4069 70.5637 57.3671 70.5419C57.7243 70.4824 58.0971 70.4068 58.4678 70.323C58.4435 70.3624 58.4305 70.4078 58.4303 70.4541V70.5638C58.4303 70.6313 58.4572 70.6961 58.5051 70.7439C58.553 70.7916 58.618 70.8185 58.6857 70.8185H58.7957C58.8635 70.8185 58.9284 70.7916 58.9763 70.7439C59.0242 70.6961 59.0511 70.6313 59.0511 70.5638V70.4541C59.0511 70.4048 59.0367 70.3567 59.0098 70.3154C58.9828 70.2742 58.9444 70.2416 58.8993 70.2217C59.1773 70.1541 59.4499 70.0836 59.7092 70.0137C59.685 70.0531 59.6721 70.0983 59.6719 70.1445V70.2542C59.6719 70.3218 59.6988 70.3866 59.7467 70.4343C59.7946 70.4821 59.8596 70.5089 59.9273 70.5089H60.0373C60.105 70.5089 60.17 70.4821 60.2179 70.4343C60.2658 70.3866 60.2927 70.3218 60.2927 70.2542V70.1445C60.2926 70.0904 60.2751 70.0377 60.2428 69.9941C60.2104 69.9506 60.165 69.9185 60.1131 69.9026C61.0245 69.6465 61.6895 69.4255 61.6895 69.4255C61.6895 69.4255 62.4617 69.1453 63.3966 68.7668V68.8613C63.3966 68.9288 63.4235 68.9936 63.4714 69.0414C63.5193 69.0892 63.5843 69.116 63.6521 69.116H63.762C63.8298 69.116 63.8947 69.0892 63.9426 69.0414C63.9905 68.9936 64.0174 68.9288 64.0174 68.8613V68.7516C64.0173 68.713 64.0084 68.6749 63.9913 68.6403C63.9741 68.6056 63.9493 68.5754 63.9187 68.5518C64.1064 68.4731 64.2957 68.3922 64.483 68.3099V68.397C64.483 68.4645 64.5099 68.5293 64.5578 68.5771C64.6057 68.6248 64.6707 68.6517 64.7384 68.6517H64.8484C64.9161 68.6517 64.9811 68.6248 65.029 68.5771C65.0769 68.5293 65.1038 68.4645 65.1038 68.397V68.2873C65.1038 68.2463 65.0938 68.206 65.0748 68.1696C65.0558 68.1333 65.0282 68.1022 64.9945 68.0788C65.197 67.9846 65.3921 67.8904 65.5719 67.7982C65.5711 67.8065 65.5694 67.8145 65.5694 67.823V67.9326C65.5694 68.0002 65.5963 68.065 65.6442 68.1128C65.6921 68.1605 65.7571 68.1873 65.8248 68.1873H65.9348C66.0025 68.1873 66.0675 68.1605 66.1154 68.1128C66.1633 68.065 66.1902 68.0002 66.1902 67.9326V67.823C66.1902 67.7642 66.1698 67.7073 66.1326 67.6619C66.0953 67.6164 66.0435 67.5851 65.9858 67.5734C66.4198 67.3221 66.6934 67.0992 66.6558 66.9492Z" fill="#2F2E41"/>
<path d="M79.1492 65.5562L74.2325 65.2467C74.2325 65.2467 74.5305 70.3542 73.9345 72.0567C73.3386 73.7592 73.6366 74.3782 73.6366 74.3782L77.9573 74.6878L79.1492 65.5562Z" fill="#D44375"/>
<path d="M79.2097 76.8445C79.1873 76.2067 78.5131 73.1934 78.3613 73.6466C78.2096 74.0998 75.6192 74.3403 74.9026 73.2385C74.9026 73.2385 73.9149 71.9207 73.233 72.8835C72.5511 73.8463 71.2521 75.4691 71.2521 75.4691C71.2521 75.4691 66.7332 76.5656 67.1138 77.7543C67.1908 77.9947 67.5117 78.1574 67.9745 78.2641C67.9576 78.2898 67.9455 78.3184 67.9389 78.3484L67.916 78.4557C67.9019 78.5217 67.9146 78.5907 67.9515 78.6474C67.9883 78.704 68.0463 78.7438 68.1125 78.7579L68.2201 78.7808C68.2863 78.7948 68.3555 78.7821 68.4123 78.7453C68.4691 78.7086 68.509 78.6508 68.5231 78.5848L68.546 78.4775C68.5541 78.4388 68.5528 78.3988 68.5425 78.3607C68.669 78.3762 68.8008 78.3892 68.9369 78.4C68.8925 78.4361 68.8618 78.4862 68.8496 78.542L68.8267 78.6493C68.8126 78.7154 68.8253 78.7843 68.8622 78.841C68.899 78.8977 68.957 78.9374 69.0232 78.9515L69.1308 78.9744C69.197 78.9885 69.2662 78.9757 69.323 78.939C69.3798 78.9022 69.4197 78.8444 69.4338 78.7784L69.4568 78.6711C69.4661 78.6267 69.4634 78.5806 69.4488 78.5377C69.4342 78.4947 69.4084 78.4564 69.3739 78.4268C69.7357 78.4429 70.1162 78.4465 70.4963 78.4415C70.4642 78.4751 70.4421 78.5167 70.4322 78.562L70.4093 78.6693C70.3951 78.7353 70.4079 78.8043 70.4448 78.861C70.4816 78.9176 70.5395 78.9574 70.6058 78.9715L70.7133 78.9943C70.7796 79.0084 70.8487 78.9957 70.9056 78.9589C70.9624 78.9222 71.0023 78.8644 71.0164 78.7983L71.0393 78.6911C71.0496 78.6429 71.0456 78.5928 71.0279 78.5469C71.0101 78.5009 70.9794 78.4611 70.9394 78.4322C71.2255 78.4239 71.5068 78.4116 71.775 78.3972C71.7431 78.4307 71.721 78.4723 71.7112 78.5174L71.6883 78.6247C71.6741 78.6908 71.6869 78.7597 71.7238 78.8164C71.7606 78.8731 71.8185 78.9128 71.8848 78.9269L71.9923 78.9498C72.0586 78.9639 72.1277 78.9511 72.1846 78.9144C72.2414 78.8776 72.2813 78.8198 72.2954 78.7538L72.3183 78.6465C72.3295 78.5935 72.3234 78.5383 72.3009 78.489C72.2784 78.4397 72.2407 78.3989 72.1933 78.3725C73.1382 78.3116 73.8347 78.2337 73.8347 78.2337C73.8347 78.2337 74.6485 78.1202 75.6421 77.9444L75.6224 78.0369C75.6082 78.1029 75.621 78.1719 75.6579 78.2286C75.6947 78.2852 75.7526 78.325 75.8189 78.3391L75.9264 78.3619C75.9927 78.376 76.0618 78.3633 76.1187 78.3265C76.1755 78.2898 76.2154 78.232 76.2295 78.1659L76.2524 78.0587C76.2604 78.0209 76.2596 77.9818 76.2501 77.9443C76.2406 77.9069 76.2226 77.8721 76.1976 77.8427C76.3976 77.8048 76.5997 77.765 76.8001 77.7235L76.7819 77.8086C76.7678 77.8747 76.7806 77.9437 76.8174 78.0003C76.8543 78.057 76.9122 78.0968 76.9785 78.1109L77.086 78.1337C77.1523 78.1478 77.2214 78.1351 77.2783 78.0983C77.3351 78.0616 77.3749 78.0038 77.3891 77.9377L77.412 77.8304C77.4206 77.7904 77.4193 77.7488 77.4082 77.7094C77.3972 77.6699 77.3768 77.6337 77.3487 77.6038C77.5665 77.5538 77.7769 77.5023 77.9721 77.4495C77.9695 77.4574 77.9662 77.4649 77.9644 77.4731L77.9415 77.5804C77.9274 77.6465 77.9402 77.7154 77.977 77.7721C78.0139 77.8288 78.0718 77.8686 78.1381 77.8826L78.2456 77.9055C78.3119 77.9196 78.381 77.9069 78.4378 77.8701C78.4947 77.8333 78.5345 77.7756 78.5487 77.7095L78.5716 77.6022C78.5839 77.5448 78.5758 77.4849 78.5489 77.4327C78.522 77.3805 78.4778 77.3391 78.4239 77.3156C78.9009 77.1601 79.2151 76.999 79.2097 76.8445Z" fill="#2F2E41"/>
<path d="M71.4669 11.2311C73.9526 11.2311 75.9676 9.22158 75.9676 6.7427C75.9676 4.26383 73.9526 2.2543 71.4669 2.2543C68.9812 2.2543 66.9662 4.26383 66.9662 6.7427C66.9662 9.22158 68.9812 11.2311 71.4669 11.2311Z" fill="#FFB8B8"/>
<path d="M75.502 6.27838C75.502 6.27838 77.9852 9.37383 79.2268 9.21906L73.7949 13.3979C73.7949 13.3979 73.1741 10.7668 72.3981 10.4572C71.6221 10.1477 75.502 6.27838 75.502 6.27838Z" fill="#FFB8B8"/>
<path d="M85.2019 29.2621C85.2019 29.2621 85.2015 12.1835 82.3287 10.7123C79.4575 9.24199 77.5583 8.4028 77.5583 8.4028C77.516 8.96319 77.3563 9.5085 77.0895 10.0035C76.8227 10.4985 76.4547 10.9322 76.0094 11.2765C75.0574 12.0094 74.109 12.6172 73.5791 12.6191L73.5621 12.5467L73.4974 12.3627L71.9325 14.7909C71.9325 14.7909 70.5357 15.1004 70.0701 16.029C69.8182 16.5314 71.006 21.5889 70.3029 26.1666C69.7064 30.0504 67.1926 33.5564 67.1214 33.9826C67.001 34.7032 70.0562 32.8154 71.432 31.9328C71.4524 31.9555 71.4669 31.9706 71.4669 31.9706C71.4669 31.9706 70.6909 32.2801 72.2429 31.8158C73.1222 31.5527 74.35 31.5382 75.2494 31.5749C75.2483 31.8438 75.2547 32.0574 75.2692 32.2028C75.4244 33.7505 83.1843 35.9173 84.2707 35.453C85.3571 34.9887 85.2019 29.2621 85.2019 29.2621Z" fill="#2F2E41"/>
<path d="M79.77 35.1434C79.77 35.1434 75.114 39.3223 78.218 40.0961C81.3219 40.87 82.5635 35.7625 82.5635 35.7625L79.77 35.1434Z" fill="#FFB8B8"/>
<path d="M74.3381 45.9775C74.3381 45.9775 76.5108 43.9655 77.7524 45.0489C78.994 46.1323 79.77 46.9061 79.77 46.9061C79.77 46.9061 76.2004 44.7393 74.3381 45.9775Z" fill="#D44375"/>
<path d="M74.9024 70.0521C74.9024 70.0521 76.1271 68.9181 76.8268 69.5287C77.5266 70.1393 77.964 70.5755 77.964 70.5755C77.964 70.5755 75.9521 69.3542 74.9024 70.0521Z" fill="#2F2E41"/>
<path d="M61.1825 59.5037C61.1825 59.5037 62.0231 58.0633 62.8709 58.4444C63.7186 58.8255 64.2643 59.1158 64.2643 59.1158C64.2643 59.1158 61.9831 58.5313 61.1825 59.5037Z" fill="#2F2E41"/>
<path d="M84.0292 12.8359C82.4907 9.75193 77.8097 11.4339 78.5704 14.7939C78.5817 14.844 78.5936 14.8946 78.606 14.9456C79.4077 18.1262 80.7178 21.1573 82.4859 23.9224L80.7788 31.5063L78.9164 35.3756L82.7963 36.3042L87.6074 24.6963C87.6074 24.6963 86.2804 17.3488 84.0292 12.8359Z" fill="#2F2E41"/>
<path opacity="0.2" d="M81.7875 24.1546L78.8388 35.2982L81.3219 30.0359L81.7875 24.1546Z" fill="black"/>
<path d="M74.2935 1.51079C74.2935 1.51079 71.8057 -1.10123 69.3015 0.543718C66.7974 2.18867 65.6095 3.78657 65.855 4.89917C66.1005 6.01176 66.8272 7.55933 66.8272 7.55933C66.8272 7.55933 66.3756 5.25435 68.449 5.08378C70.5225 4.91321 73.3873 3.54476 73.3873 3.54476L75.325 7.6716C75.325 7.6716 75.599 6.71527 76.3584 6.98957C77.1179 7.26387 76.5292 1.81673 74.2935 1.51079Z" fill="#2F2E41"/>
<path d="M58.3528 60.5261C58.3526 60.9182 58.3199 61.3095 58.255 61.6962V61.6977C58.0768 62.7379 57.664 63.724 57.0477 64.5818C56.4314 65.4395 55.6278 66.1465 54.6976 66.6493C53.7673 67.152 52.7346 67.4375 51.6776 67.4841C50.6205 67.5307 49.5666 67.3372 48.5955 66.9182H48.594C48.3066 66.7946 48.0282 66.6513 47.7606 66.4895C46.9312 65.9901 46.2149 65.3243 45.657 64.5344C45.0992 63.7444 44.712 62.8475 44.52 61.9005C44.43 61.4479 44.3848 60.9875 44.385 60.5261C44.385 60.3156 44.3943 60.1067 44.4129 59.9008V59.8993C44.574 58.122 45.413 56.4742 46.7568 55.2959C48.1006 54.1175 49.8467 53.4985 51.6348 53.5666C53.4229 53.6347 55.1165 54.3847 56.3663 55.6619C57.6161 56.939 58.3266 58.6458 58.3512 60.4302V60.4317C58.3528 60.4642 58.3528 60.4936 58.3528 60.5261Z" fill="#D44375"/>
<path d="M53.088 58.1998H49.9601L48.3961 55.499L49.457 53.6653L49.5189 53.6487C50.8619 53.2909 52.2803 53.3304 53.6011 53.7625L53.6573 53.7811L54.6521 55.499L53.088 58.1998ZM50.1393 57.8903H52.9089L54.2936 55.499L53.4479 54.0384C52.2206 53.6503 50.9087 53.6132 49.6613 53.9314L48.7546 55.499L50.1393 57.8903Z" fill="white"/>
<path d="M52.9328 63.7718H49.8049L48.2409 61.0704L49.8049 58.369H52.9328L54.4968 61.0704L52.9328 63.7718ZM49.9841 63.4623H52.7537L54.1384 61.0704L52.7537 58.6785H49.9841L48.5993 61.0704L49.9841 63.4623Z" fill="white"/>
<path d="M51.3688 67.6456C50.3934 67.6475 49.4281 67.4481 48.5336 67.0601L48.3741 66.991L49.96 64.2499H53.088L54.6071 66.874L54.4562 66.9463C53.4933 67.4091 52.4377 67.6482 51.3688 67.6456ZM48.8179 66.8434C49.6712 67.1858 50.585 67.3529 51.5047 67.3348C52.4243 67.3166 53.3308 67.1136 54.1699 66.7379L52.9088 64.5594H50.1393L48.8179 66.8434Z" fill="white"/>
<path d="M58.2095 60.9857H55.0816L53.5176 58.2849L55.0815 55.5826H56.5058L56.5517 55.6308C57.7869 56.9267 58.4851 58.6404 58.5064 60.4282V60.473L58.2095 60.9857ZM55.2607 60.6762H58.0303L58.1954 60.3913C58.1654 58.7185 57.5159 57.1159 56.372 55.8922H55.2608L53.876 58.2849L55.2607 60.6762Z" fill="white"/>
<path d="M55.0385 66.6367L53.5176 64.0115L55.0815 61.3092H58.2093L58.4102 61.6544L58.408 61.7236C58.2384 62.7093 57.863 63.6483 57.306 64.4799C56.749 65.3115 56.023 66.017 55.175 66.5507L55.0385 66.6367ZM53.876 64.0115L55.1447 66.2013C55.9133 65.692 56.5707 65.033 57.0773 64.2638C57.5839 63.4946 57.9293 62.6312 58.0926 61.7254L58.0305 61.6187H55.2608L53.876 64.0115Z" fill="white"/>
<path d="M47.8158 66.7036L47.6803 66.6219C46.8327 66.1111 46.1007 65.4304 45.5306 64.6229C44.9604 63.8155 44.5645 62.8988 44.3678 61.9308L44.3563 61.8736L44.6834 61.3092H47.8114L49.3753 64.0115L47.8158 66.7036ZM44.6839 61.9269C44.8724 62.8155 45.2368 63.6577 45.7558 64.4041C46.2748 65.1506 46.9379 65.7862 47.7063 66.2738L49.0169 64.0115L47.6321 61.6187H44.8625L44.6839 61.9269Z" fill="white"/>
<path d="M47.8113 60.6762H44.6835L44.2578 59.9424V59.9008C44.411 58.1468 45.2124 56.5122 46.5064 55.3145L46.5511 55.2731H47.8114L49.3753 57.9754L47.8113 60.6762ZM44.8625 60.3667H47.6322L49.0169 57.9754L47.6321 55.5826H46.6735C45.4762 56.7096 44.7295 58.2314 44.5719 59.8658L44.8625 60.3667Z" fill="white"/>
</g>
<defs>
<clipPath id="clip0_433_27">
<rect width="133" height="79" fill="white" transform="translate(9)"/>
</clipPath>
</defs>
</svg>
